<svg width="1200" height="900" viewBox="0 0 1200 900" fill="none" xmlns="http://www.w3.org/2000/svg">
<rect width="1200" height="900" fill="#11110F"/>
<circle cx="910" cy="220" r="220" fill="#D8A657" fill-opacity="0.18"/>
<path d="M220 620C350 560 470 458 620 438C776 417 858 489 1030 484C1089 482 1140 462 1175 438C1199 422 1238 425 1250 450C1270 493 1250 549 1197 572C1100 614 986 602 854 593C680 581 587 630 406 654C327 664 260 651 220 620Z" fill="#F1E5D4"/>
<path d="M278 595C399 541 517 456 655 436C793 416 865 488 1017 483C1062 481 1103 467 1131 449C1146 439 1171 442 1179 456C1193 482 1178 517 1145 531C1058 568 955 561 846 553C693 540 606 592 455 610C377 619 307 610 278 595Z" fill="#BE8662"/>
<path d="M520 460C598 430 690 424 798 438" stroke="#1D1916" stroke-width="10" stroke-linecap="round" stroke-opacity="0.65"/>
</svg>
