<svg width="1600" height="900" viewBox="0 0 1600 900" fill="none" xmlns="http://www.w3.org/2000/svg">
<defs>
<linearGradient id="bg" x1="0" y1="0" x2="1600" y2="900" gradientUnits="userSpaceOnUse">
<stop stop-color="#1F1A17"/>
<stop offset="0.52" stop-color="#4A332A"/>
<stop offset="1" stop-color="#D8C3A8"/>
</linearGradient>
<linearGradient id="shoe" x1="420" y1="300" x2="1170" y2="650" gradientUnits="userSpaceOnUse">
<stop stop-color="#F5EEE4"/>
<stop offset="0.5" stop-color="#C8A47E"/>
<stop offset="1" stop-color="#8D5E46"/>
</linearGradient>
</defs>
<rect width="1600" height="900" fill="url(#bg)"/>
<circle cx="1260" cy="170" r="180" fill="#E8C06A" fill-opacity="0.18"/>
<circle cx="1325" cy="735" r="220" fill="#FFFFFF" fill-opacity="0.08"/>
<path d="M330 650C430 600 535 520 660 500C815 475 885 555 1065 550C1170 547 1240 512 1310 470C1340 452 1390 458 1410 488C1442 538 1418 613 1358 643C1270 686 1163 677 1040 674C888 670 807 707 649 725C540 737 400 715 330 650Z" fill="#14110F" fill-opacity="0.78"/>
<path d="M392 620C455 575 541 517 648 497C774 472 862 530 1010 534C1111 536 1180 503 1245 466C1269 452 1304 458 1315 482C1337 534 1306 595 1250 617C1160 650 1053 641 929 636C767 629 704 682 562 695C488 701 427 681 392 620Z" fill="url(#shoe)"/>
<path d="M470 606C570 548 690 520 816 534C905 544 1003 592 1125 587" stroke="#F8F2EA" stroke-width="10" stroke-linecap="round" stroke-opacity="0.55"/>
<path d="M515 650C690 585 846 560 1086 566" stroke="#FFF2D6" stroke-width="5" stroke-linecap="round" stroke-opacity="0.5"/>
<path d="M860 474C892 418 950 372 1030 340C1107 309 1194 297 1260 304" stroke="#FFDFA3" stroke-width="18" stroke-linecap="round" stroke-opacity="0.45"/>
<path d="M1030 360C1110 345 1183 349 1252 364" stroke="#FFF8EE" stroke-width="6" stroke-linecap="round" stroke-opacity="0.55"/>
</svg>
